<?xml version="1.0" encoding="UTF-8"?>
<svg width="51px" height="30px" viewBox="0 0 51 30" version="1.1" xmlns="http://www.w3.org/2000/svg" xmlns:xlink="http://www.w3.org/1999/xlink">
    <!-- Generator: sketchtool 59 (101010) - https://sketch.com -->
    <title>7BA3FD87-0183-48FE-A6BB-1E40C7136402</title>
    <desc>Created with sketchtool.</desc>
    <g id="7---Nov-12" stroke="none" stroke-width="1" fill="none" fill-rule="evenodd">
        <g id="M-A.-APPROVER-VIEW-Main-Page---Mgr-View" transform="translate(-58.000000, -13.000000)" fill="#FFFFFF" fill-rule="nonzero">
            <g id="Navigation-/-Top-Nav-/-Desktop-/-1-line-/-BELL">
                <g id="LOGO-/-Bell-ICONS-/-Logo-/-Bell-(Desktop-Default)" transform="translate(58.000000, 13.000000)">
                    <path d="M6.65961891,7.54951657e-15 C10.0656086,7.54951657e-15 12.8306807,0.360783023 14.8592075,2.13208897 C16.2418527,3.33862827 17.0676976,5.19254859 17.0676976,7.22959744 C17.0676976,9.42378152 16.1272959,11.3471517 14.3313192,12.6905756 C16.7170449,13.4534488 18.9752307,15.2578677 19.8191319,17.9336331 C20.7589335,14.1400213 23.9309547,10.5413928 29.0917898,10.5413928 C32.4114255,10.5413928 34.863485,11.8371624 36.3778703,13.8900288 C37.1166521,14.8891926 37.6285025,15.9907512 37.895747,17.3196673 L37.895747,17.3196673 L37.895747,0.147127471 L42.8398516,0.147127471 L42.8398516,29.5263107 L37.895747,29.5263107 L37.895747,21.7553876 L24.6971756,21.7553876 C24.8303341,23.8669237 26.3208262,26.0626862 29.7010134,26.0747761 C31.424983,26.0747761 32.9596067,25.5300585 34.1533969,24.6050798 L34.1533969,24.6050798 L36.526194,27.468709 C34.8685036,29.000534 32.4417558,30 29.0854619,30 C26.3590663,30 23.6521455,29.1749981 21.7849799,27.064503 C20.8690716,26.0295397 20.1670571,24.6655965 19.8026576,22.9916815 C18.740444,26.7566133 15.4216265,29.2615752 10.5733131,29.4605214 C9.04147146,29.5236912 7.39894621,29.5344714 5.7167625,29.5263107 C3.82657652,29.51815 1.88680384,29.5263107 2.22044605e-15,29.5263107 L2.22044605e-15,29.5263107 L2.22044605e-15,7.54951657e-15 Z M51,0.146052813 L51,29.5263107 L46.1400673,29.5263107 L46.1400673,0.146052813 L51,0.146052813 Z M8.30056219,15.7133886 L5.08015441,15.7133886 L5.079718,25.3450829 L8.67859939,25.3450829 C9.29349626,25.3450829 10.0503344,25.3190225 10.6697044,25.2045377 C13.4879635,24.6843023 14.6833902,22.762477 14.6833902,20.4819844 C14.6833902,18.2791358 13.3861171,16.6154972 11.1262402,16.0073413 C10.4681391,15.8302577 9.31668036,15.7133886 8.30056219,15.7133886 L8.30056219,15.7133886 Z M29.0536588,14.3847412 C26.7717433,14.3847412 25.2234819,15.934466 24.7880027,18.0851936 L24.7880027,18.0851936 L33.2504717,18.0851936 C32.8564511,15.7723605 31.3376471,14.3847412 29.0536588,14.3847412 Z M6.45418052,3.98755411 L5.08015441,3.98809144 L5.08015441,11.7632124 L6.70129574,11.7632124 C7.5978385,11.7632124 8.23150085,11.7121661 8.67216239,11.6200478 C11.3040759,11.0677068 11.7822684,9.04825553 11.780741,7.76460948 C11.780741,6.24383331 11.0729441,5.02886466 9.58299747,4.43518298 C8.8284505,4.13518533 7.78052921,3.98755411 6.45418052,3.98755411 L6.45418052,3.98755411 Z" id="shape"></path>
                </g>
            </g>
        </g>
    </g>
</svg>